<?xml version="1.0" encoding="UTF-8"?>
<svg id="Layer_1" xmlns="http://www.w3.org/2000/svg" version="1.1" viewBox="0 0 928.7 928.7">
  <!-- Generator: Adobe Illustrator 30.5.1, SVG Export Plug-In . SVG Version: 2.1.4 Build 3)  -->
  <defs>
    <style>
      .st0 {
        fill: #fff;
      }
    </style>
  </defs>
  <polygon class="st0" points="818.19 502.2 818.19 560.67 679.06 560.67 679.06 360.82 748.76 360.82 748.76 502.2 818.19 502.2"/>
  <path class="st0" d="M464.38.25c256.28,0,464.07,207.82,464.07,464.16s-207.79,464.04-464.07,464.04S.25,720.66.25,464.41,208.13.25,464.38.25ZM757.02,756.95c77.71-77.5,121.31-182.79,121.14-292.54,0-114.33-46.22-217.86-121.14-292.67-77.5-77.81-182.83-121.48-292.64-121.33-114.27,0-217.75,46.35-292.67,121.33-77.79,77.51-121.44,182.85-121.27,292.67-.14,109.77,43.51,215.06,121.27,292.54,74.92,74.88,178.4,121.31,292.67,121.31s217.83-46.43,292.64-121.31Z"/>
  <path class="st0" d="M660.56,502.17v58.5h-139.09v-69.52l-114.55,90.2-104.69-82.42c-15.11,36.29-51.62,61.5-93.66,61.5h-89.6v-199.61h89.6c46.98,0,80.83,29.88,93.63,61.7l104.72-82.34,38.79,30.53-95.98,75.44,18.45,14.43,95.94-75.39,38.85,30.44-95.96,75.52,18.41,14.47,96.05-75.54v-69.26h69.63v141.35h69.46ZM244.88,460.63c0-27.05-17.95-42.42-43.35-42.42h-15.55v84.86h15.1c23.63,0,43.8-12.84,43.8-42.44Z"/>
</svg>