<?xml version="1.0" encoding="UTF-8"?>
<svg id="Layer_1" xmlns="http://www.w3.org/2000/svg" version="1.1" viewBox="0 0 991.14 991.14">
  <!-- Generator: Adobe Illustrator 30.5.1, SVG Export Plug-In . SVG Version: 2.1.4 Build 3)  -->
  <defs>
    <style>
      .st0 {
        fill: none;
        stroke: #000;
        stroke-miterlimit: 10;
      }

      .st1 {
        fill: #fff;
      }
    </style>
  </defs>
  <g>
    <path class="st1" d="M958.42,319.98c21.29,56.1,32.21,115.59,32.22,175.59,0,273.4-221.67,495.07-495.07,495.07-128.93,0-252.77-50.29-345.19-140.18,45.42,8.33,93.86,13.03,146.17,13.03,99.22,0,185.78-16.5,259.79-49.38,99.22-44.72,148.81-111.76,148.81-201.13,0-41.75-14.6-99.46-43.9-173.19-29.33-73.68-44.02-121.17-44.02-142.37,0-41.42,24.88-62.13,74.64-62.13,36.89-.24,73.79-.31,110.69-.21l-58.79,116.67h180.33c13.13-8.59,24.74-19.33,34.32-31.77Z"/>
    <path class="st1" d="M854.21,154.34c-21.29-4-44.02-6.06-68.49-6.06-23.88-.05-52.6-.25-79.04.16-190.23,3.76-285.33,63.29-285.33,178.39,0,36.56,13.41,87.71,40.23,153.6,26.85,65.84,40.26,116.42,40.26,151.66,0,51.2-21.08,90.47-63.33,117.87-36.34,23.8-81.64,35.76-136.02,35.76-41.46.27-82.54-7.88-120.76-23.97-48.84-20.87-73.18-49.79-73.18-86.63,0-32.55,17.61-57.18,53.05-73.81,27.11-12.75,59-19.1,95.72-19.1h38.24c28.18,0,53.26-6.4,75.21-19.1,24.51-14.4,40.23-34.08,47.11-59.25h-237.71c-75.38,0-134.17,9.74-178.31,28.02-.9-12.09-1.35-24.2-1.36-36.31C.5,222.17,222.17.5,495.57.5c135.57.01,265.2,55.62,358.64,153.84Z"/>
  </g>
  <g>
    <path class="st0" d="M495.57.5C222.17.5.5,222.17.5,495.57c.01,12.11.46,24.22,1.36,36.31,44.14-18.28,102.93-28.02,178.31-28.02h237.71c-6.88,25.17-22.6,44.85-47.11,59.25-21.95,12.7-47.03,19.1-75.21,19.1h-38.24c-36.72,0-68.61,6.35-95.72,19.1-35.44,16.63-53.05,41.26-53.05,73.81,0,36.84,24.34,65.76,73.18,86.63,38.22,16.09,79.3,24.24,120.76,23.97,54.38,0,99.68-11.96,136.02-35.76,42.25-27.4,63.33-66.67,63.33-117.87,0-35.24-13.41-85.82-40.26-151.66-26.82-65.89-40.23-117.04-40.23-153.6,0-115.1,95.1-174.63,285.33-178.39,26.44-.41,55.16-.21,79.04-.16,24.47,0,47.2,2.06,68.49,6.06C760.77,56.12,631.14.51,495.57.5Z"/>
    <path class="st0" d="M691.87,235.29c-49.76,0-74.64,20.71-74.64,62.13,0,21.2,14.69,68.69,44.02,142.37,29.3,73.73,43.9,131.44,43.9,173.19,0,89.37-49.59,156.41-148.81,201.13-74.01,32.88-160.57,49.38-259.79,49.38-52.31,0-100.75-4.7-146.17-13.03,92.42,89.89,216.26,140.18,345.19,140.18,273.4,0,495.07-221.67,495.07-495.07-.01-60-10.93-119.49-32.22-175.59-9.58,12.44-21.19,23.18-34.32,31.77h-180.33l58.79-116.67c-36.9-.1-73.8-.03-110.69.21Z"/>
  </g>
</svg>